# xmcd CD database file
#
# Track frame offsets:
#	150
#	20606
#	39182
#	56830
#	75889
#	97245
#	121842
#	139081
#	157851
#	174692
#
# Disc length: 2596 seconds
#
# Revision: 0
# Processed by: cddbd v1.5.1PL2 Copyright (c) Steve Scherf et al.
# Submitted via: CDex 1.51
#
DISCID=760a220a
DTITLE=オムニバス - The Supplements - Super Stylish Doctors Songs2
DYEAR=2005
DGENRE=Vocal
TTITLE0=すべてのTRUTH
TTITLE1=きっとできるよ！
TTITLE2=Polestar
TTITLE3=風を起こそう！
TTITLE4=さよならの吐息
TTITLE5=Dream
TTITLE6=大好きで、大好きで、大好きで、
TTITLE7=Nudity
TTITLE8=SKY-HIGH
TTITLE9=夢に見た楽園
EXTD=YEAR: 2005
EXTT0=
EXTT1=
EXTT2=
EXTT3=
EXTT4=
EXTT5=
EXTT6=
EXTT7=
EXTT8=
EXTT9=
PLAYORDER=
